<svg xmlns="http://www.w3.org/2000/svg" viewBox="0 0 34 34" width="34" height="34">
                                    <title>Landsbankinn</title>
                                    <path fill="#fff" fill-rule="evenodd" d="M 0 33.116 c 1.582 -0.507 3.114 -1.97 3.874 -4.38 c 0.632 -2.016 7.25 -22.687 7.9 -24.783 c 0.656 -2.096 2.402 -3.88 5.077 -3.926 C 19.53 -0.02 29.62 0.007 31.68 0.02 c -3.03 0.2 -4.387 1.64 -5.38 4.673 c -0.757 2.305 -6.762 21.082 -7.736 24.41 c -0.973 3.317 3.26 4.464 4.232 1.402 c 0.612 -1.907 5.462 -16.516 5.462 -16.516 s 4.71 13.856 5.318 15.69 c 0.53 1.613 -0.257 3.424 -2.747 3.436 c 0 0 -28.633 -0.048 -30.83 0 Z" />
                                </svg>